# 3ds Max Wavefront OBJ Exporter v0.97b - (c)2007 guruware
# 创建的文件:16.09.2014 22:46:55

mtllib ??????.mtl

#
# object Object204
#

v  -16.7768 -5.6110 11.6315
v  -16.7768 -5.6110 -12.2672
v  -16.7768 -6.7680 -12.2672
v  -16.7768 -6.7680 11.6315
v  17.6869 -5.6110 11.6315
v  17.6869 -6.7680 11.6315
v  17.6869 -5.6110 -12.2672
v  17.6869 -6.7680 -12.2672
v  -15.5612 -6.7680 10.3859
v  -15.5612 -6.7680 -11.0217
v  16.4714 -6.7680 -11.0216
v  16.4714 -6.7680 10.3859
v  -15.5612 7.8968 -11.0217
v  -15.5612 -5.6110 -11.0217
v  -15.5612 -5.6110 10.3859
v  -15.5612 7.8968 10.3859
v  14.2795 7.8968 10.3859
v  -13.3694 7.8968 10.3859
v  16.4714 -5.6110 10.3859
v  16.4714 7.8968 10.3859
v  16.4714 -5.6110 -11.0216
v  16.4714 7.8968 -11.0216
v  -13.3694 7.8968 -11.0217
v  14.2795 7.8968 -11.0216
v  16.4714 10.1939 -11.0216
v  14.2795 10.1939 -11.0216
v  14.2795 10.1939 10.3859
v  16.4714 10.1939 10.3859
v  -15.5612 10.1939 10.3859
v  -13.3694 10.1939 10.3859
v  -13.3694 10.1939 -11.0217
v  -15.5612 10.1939 -11.0217
# 32 vertices

vn -1.0000 0.0000 -0.0000
vn 0.0000 0.0000 1.0000
vn 1.0000 0.0000 -0.0000
vn 0.0000 0.0000 -1.0000
vn 0.0000 -1.0000 -0.0000
vn 0.0000 1.0000 -0.0000
# 6 vertex normals

vt 1.0000 0.0600 0.0000
vt 0.0000 0.0600 0.0000
vt 0.0000 0.0000 0.0000
vt 1.0000 0.0000 0.0000
vt 0.0000 1.0000 0.0000
vt 1.0000 1.0000 0.0000
vt 0.9316 1.0000 0.0000
vt 0.0684 1.0000 0.0000
# 8 texture coords

g Object204
usemtl BatteryPack03
s 8
f 1/1/1 2/2/1 3/3/1 4/4/1 
s 16
f 5/1/2 1/2/2 4/3/2 6/4/2 
s 32
f 7/1/3 5/2/3 6/3/3 8/4/3 
s 64
f 2/1/4 7/2/4 8/3/4 3/4/4 
s off
f 9/3/5 10/3/5 11/3/5 12/3/5 
s 8
f 13/5/1 14/2/1 15/1/1 16/6/1 
s 16
f 15/2/2 17/7/2 18/8/2 16/5/2 
f 17/7/2 15/2/2 19/1/2 20/6/2 
s 32
f 20/5/3 19/2/3 21/1/3 22/6/3 
s 64
f 21/2/4 23/7/4 24/8/4 22/5/4 
f 23/7/4 21/2/4 14/1/4 13/6/4 
s off
f 10/3/5 3/4/5 8/3/5 11/3/5 
f 9/3/5 4/4/5 3/3/5 10/3/5 
f 12/3/5 6/4/5 4/3/5 9/3/5 
f 11/3/5 8/4/5 6/3/5 12/3/5 
f 14/2/6 2/2/6 1/1/6 15/1/6 
f 21/2/6 7/2/6 2/1/6 14/1/6 
f 19/2/6 5/2/6 7/1/6 21/1/6 
f 15/2/6 1/2/6 5/1/6 19/1/6 
f 24/6/6 23/6/6 18/6/6 17/6/6 
f 25/6/6 26/6/6 27/6/6 28/6/6 
f 29/6/6 30/6/6 31/6/6 32/6/6 
f 20/6/2 28/6/2 27/6/2 17/7/2 
f 22/6/3 25/6/3 28/6/3 20/5/3 
f 24/8/4 26/6/4 25/6/4 22/5/4 
f 17/6/1 27/6/1 26/6/1 24/6/1 
f 16/6/1 29/6/1 32/6/1 13/5/1 
f 18/8/2 30/6/2 29/6/2 16/5/2 
f 23/6/3 31/6/3 30/6/3 18/6/3 
f 13/6/4 32/6/4 31/6/4 23/7/4 
# 30 polygons