# 3ds Max Wavefront OBJ Exporter v0.97b - (c)2007 guruware
# File Created: 24.01.2014 11:56:41

mtllib ????.mtl

#
# object Box001
#

v  -23.0662 0.4705 -22.1523
v  22.7474 0.2287 -21.9838
v  22.5843 0.2287 22.3741
v  -23.2293 0.4705 22.2056
v  -22.9973 13.5392 -22.1520
v  -23.1603 13.5392 22.2059
v  22.6533 13.2974 22.3743
v  22.8164 13.2974 -21.9836
# 8 vertices

vn -0.0053 -1.0000 -0.0000
vn 0.0053 1.0000 0.0000
vn -1.0000 0.0053 -0.0037
vn -0.0037 -0.0000 1.0000
vn 1.0000 -0.0053 0.0037
vn 0.0037 0.0000 -1.0000
# 6 vertex normals

vt 1.0000 0.0000 0.0000
vt 1.0000 1.0000 0.0000
vt 0.0000 1.0000 0.0000
vt 0.0000 0.0000 0.0000
# 4 texture coords

g Box001
usemtl Opticalcamera_008008136
s 2
f 1/1/1 2/2/1 3/3/1 4/4/1 
s 4
f 5/4/2 6/1/2 7/2/2 8/3/2 
s 8
f 1/4/3 4/1/3 6/2/3 5/3/3 
s 16
f 4/4/4 3/1/4 7/2/4 6/3/4 
s 32
f 3/4/5 2/1/5 8/2/5 7/3/5 
s 64
f 2/4/6 1/1/6 5/2/6 8/3/6 
# 6 polygons

#
# object Cylinder001
#

v  0.1721 13.7720 -0.8244
v  8.7208 13.7267 9.4401
v  4.6947 13.7479 11.7449
v  0.1230 13.7720 12.5337
v  13.3186 13.7025 1.5436
v  11.7159 13.7109 5.8972
v  11.7650 13.7109 -7.4609
v  13.3357 13.7025 -3.0956
v  4.7870 13.7479 -13.3601
v  8.7961 13.7267 -11.0257
v  -4.3504 13.7961 -13.3937
v  0.2213 13.7720 -14.1825
v  -11.3716 13.8330 -7.5460
v  -8.3765 13.8173 -11.0889
v  -12.9914 13.8414 1.4469
v  -12.9743 13.8414 -3.1924
v  -8.4518 13.8173 9.3770
v  -11.4207 13.8330 5.8121
v  -4.4427 13.7961 11.7113
v  4.7222 18.9600 11.7450
v  0.1505 18.9841 12.5338
v  8.7483 18.9388 9.4402
v  11.7434 18.9230 5.8973
v  13.3461 18.9146 1.5437
v  13.3632 18.9146 -3.0955
v  11.7925 18.9230 -7.4608
v  8.8236 18.9388 -11.0256
v  4.8145 18.9600 -13.3600
v  0.2488 18.9841 -14.1824
v  -4.3229 19.0082 -13.3936
v  -8.3490 19.0294 -11.0888
v  -11.3441 19.0451 -7.5459
v  -12.9468 19.0535 -3.1923
v  -12.9639 19.0535 1.4470
v  -11.3932 19.0451 5.8122
v  -8.4243 19.0294 9.3771
v  -4.4152 19.0082 11.7114
v  4.7497 24.1721 11.7451
v  0.1780 24.1962 12.5339
v  8.7758 24.1509 9.4403
v  11.7709 24.1351 5.8974
v  13.3736 24.1267 1.5438
v  13.3907 24.1267 -3.0954
v  11.8200 24.1351 -7.4607
v  8.8511 24.1509 -11.0255
v  4.8420 24.1721 -13.3599
v  0.2763 24.1962 -14.1823
v  -4.2954 24.2203 -13.3935
v  -8.3215 24.2415 -11.0887
v  -11.3166 24.2572 -7.5458
v  -12.9193 24.2656 -3.1922
v  -12.9364 24.2656 1.4471
v  -11.3657 24.2572 5.8123
v  -8.3968 24.2415 9.3772
v  -4.3877 24.2203 11.7115
v  4.7772 29.3842 11.7452
v  0.2055 29.4083 12.5340
v  8.8033 29.3630 9.4404
v  11.7984 29.3472 5.8975
v  13.4011 29.3388 1.5439
v  13.4182 29.3388 -3.0953
v  11.8475 29.3472 -7.4606
v  8.8786 29.3630 -11.0254
v  4.8695 29.3842 -13.3598
v  0.3038 29.4083 -14.1822
v  -4.2679 29.4324 -13.3934
v  -8.2940 29.4536 -11.0886
v  -11.2891 29.4693 -7.5457
v  -12.8918 29.4777 -3.1921
v  -12.9089 29.4777 1.4472
v  -11.3382 29.4693 5.8124
v  -8.3693 29.4536 9.3773
v  -4.3602 29.4324 11.7116
v  4.8047 34.5963 11.7453
v  0.2330 34.6204 12.5341
v  8.8308 34.5751 9.4405
v  11.8259 34.5593 5.8976
v  13.4286 34.5509 1.5440
v  13.4457 34.5509 -3.0952
v  11.8750 34.5593 -7.4605
v  8.9061 34.5751 -11.0253
v  4.8970 34.5963 -13.3597
v  0.3313 34.6204 -14.1821
v  -4.2404 34.6445 -13.3933
v  -8.2665 34.6657 -11.0885
v  -11.2616 34.6814 -7.5456
v  -12.8643 34.6898 -3.1920
v  -12.8814 34.6898 1.4473
v  -11.3107 34.6814 5.8125
v  -8.3418 34.6657 9.3774
v  -4.3327 34.6445 11.7117
v  4.8322 39.8084 11.7454
v  0.2606 39.8325 12.5342
v  8.8584 39.7872 9.4406
v  11.8534 39.7714 5.8977
v  13.4561 39.7631 1.5441
v  13.4732 39.7631 -3.0951
v  11.9025 39.7714 -7.4604
v  8.9336 39.7872 -11.0252
v  4.9245 39.8084 -13.3596
v  0.3588 39.8325 -14.1820
v  -4.2129 39.8566 -13.3932
v  -8.2390 39.8778 -11.0884
v  -11.2341 39.8935 -7.5455
v  -12.8368 39.9019 -3.1919
v  -12.8539 39.9019 1.4474
v  -11.2832 39.8935 5.8126
v  -8.3143 39.8778 9.3775
v  -4.3052 39.8566 11.7118
v  0.3097 39.8325 -0.8239
# 110 vertices

vn -0.0053 -1.0000 -0.0000
vn -0.0037 0.0000 1.0000
vn 0.3386 -0.0018 0.9409
vn 0.6400 -0.0034 0.7684
vn 0.8642 -0.0046 0.5032
vn 0.9841 -0.0052 0.1773
vn 0.9854 -0.0052 -0.1700
vn 0.8678 -0.0046 -0.4968
vn 0.6456 -0.0034 -0.7637
vn 0.3455 -0.0018 -0.9384
vn 0.0037 -0.0000 -1.0000
vn -0.3386 0.0018 -0.9409
vn -0.6400 0.0034 -0.7684
vn -0.8642 0.0046 -0.5032
vn -0.9841 0.0052 -0.1773
vn -0.9854 0.0052 0.1700
vn -0.8678 0.0046 0.4968
vn -0.6456 0.0034 0.7637
vn -0.3455 0.0018 0.9384
vn 0.0053 1.0000 0.0000
# 20 vertex normals

vt 0.5000 0.0000 0.0000
vt 0.8611 0.0000 1.0000
vt 0.8056 0.0000 1.0000
vt 0.7500 0.0000 1.0000
vt 0.9722 0.0000 1.0000
vt 0.9167 0.0000 1.0000
vt 0.0833 0.0000 1.0000
vt 0.0278 0.0000 1.0000
vt -0.0278 0.0000 1.0000
vt 0.1944 0.0000 1.0000
vt 0.1389 0.0000 1.0000
vt 0.3056 0.0000 1.0000
vt 0.2500 0.0000 1.0000
vt 0.4167 0.0000 1.0000
vt 0.3611 0.0000 1.0000
vt 0.5278 0.0000 1.0000
vt 0.4722 0.0000 1.0000
vt 0.6389 0.0000 1.0000
vt 0.5833 0.0000 1.0000
vt 0.6944 0.0000 1.0000
vt 0.8056 0.2000 1.0000
vt 0.7500 0.2000 1.0000
vt 0.8611 0.2000 1.0000
vt 0.9167 0.2000 1.0000
vt 0.9722 0.2000 1.0000
vt 0.0278 0.2000 1.0000
vt -0.0278 0.2000 1.0000
vt 0.0833 0.2000 1.0000
vt 0.1389 0.2000 1.0000
vt 0.1944 0.2000 1.0000
vt 0.2500 0.2000 1.0000
vt 0.3056 0.2000 1.0000
vt 0.3611 0.2000 1.0000
vt 0.4167 0.2000 1.0000
vt 0.4722 0.2000 1.0000
vt 0.5278 0.2000 1.0000
vt 0.5833 0.2000 1.0000
vt 0.6389 0.2000 1.0000
vt 0.6944 0.2000 1.0000
vt 0.8056 0.4000 1.0000
vt 0.7500 0.4000 1.0000
vt 0.8611 0.4000 1.0000
vt 0.9167 0.4000 1.0000
vt 0.9722 0.4000 1.0000
vt 0.0278 0.4000 1.0000
vt -0.0278 0.4000 1.0000
vt 0.0833 0.4000 1.0000
vt 0.1389 0.4000 1.0000
vt 0.1944 0.4000 1.0000
vt 0.2500 0.4000 1.0000
vt 0.3056 0.4000 1.0000
vt 0.3611 0.4000 1.0000
vt 0.4167 0.4000 1.0000
vt 0.4722 0.4000 1.0000
vt 0.5278 0.4000 1.0000
vt 0.5833 0.4000 1.0000
vt 0.6389 0.4000 1.0000
vt 0.6944 0.4000 1.0000
vt 0.8056 0.6000 1.0000
vt 0.7500 0.6000 1.0000
vt 0.8611 0.6000 1.0000
vt 0.9167 0.6000 1.0000
vt 0.9722 0.6000 1.0000
vt 0.0278 0.6000 1.0000
vt -0.0278 0.6000 1.0000
vt 0.0833 0.6000 1.0000
vt 0.1389 0.6000 1.0000
vt 0.1944 0.6000 1.0000
vt 0.2500 0.6000 1.0000
vt 0.3056 0.6000 1.0000
vt 0.3611 0.6000 1.0000
vt 0.4167 0.6000 1.0000
vt 0.4722 0.6000 1.0000
vt 0.5278 0.6000 1.0000
vt 0.5833 0.6000 1.0000
vt 0.6389 0.6000 1.0000
vt 0.6944 0.6000 1.0000
vt 0.8056 0.8000 1.0000
vt 0.7500 0.8000 1.0000
vt 0.8611 0.8000 1.0000
vt 0.9167 0.8000 1.0000
vt 0.9722 0.8000 1.0000
vt 0.0278 0.8000 1.0000
vt -0.0278 0.8000 1.0000
vt 0.0833 0.8000 1.0000
vt 0.1389 0.8000 1.0000
vt 0.1944 0.8000 1.0000
vt 0.2500 0.8000 1.0000
vt 0.3056 0.8000 1.0000
vt 0.3611 0.8000 1.0000
vt 0.4167 0.8000 1.0000
vt 0.4722 0.8000 1.0000
vt 0.5278 0.8000 1.0000
vt 0.5833 0.8000 1.0000
vt 0.6389 0.8000 1.0000
vt 0.6944 0.8000 1.0000
vt 0.8056 1.0000 1.0000
vt 0.7500 1.0000 1.0000
vt 0.8611 1.0000 1.0000
vt 0.9167 1.0000 1.0000
vt 0.9722 1.0000 1.0000
vt 0.0278 1.0000 1.0000
vt -0.0278 1.0000 1.0000
vt 0.0833 1.0000 1.0000
vt 0.1389 1.0000 1.0000
vt 0.1944 1.0000 1.0000
vt 0.2500 1.0000 1.0000
vt 0.3056 1.0000 1.0000
vt 0.3611 1.0000 1.0000
vt 0.4167 1.0000 1.0000
vt 0.4722 1.0000 1.0000
vt 0.5278 1.0000 1.0000
vt 0.5833 1.0000 1.0000
vt 0.6389 1.0000 1.0000
vt 0.6944 1.0000 1.0000
vt 0.5000 1.0000 0.0000
vt 0.9708 1.0000 0.8794
# 117 texture coords

g Cylinder001
usemtl Opticalcamera_028089177
s 1
f 9/5/7 10/6/7 11/7/7 12/8/7 
f 9/5/7 13/9/7 14/10/7 10/6/7 
f 9/5/7 15/11/7 16/12/7 13/13/7 
f 9/5/7 17/14/7 18/15/7 15/11/7 
f 9/5/7 19/16/7 20/17/7 17/14/7 
f 9/5/7 21/18/7 22/19/7 19/16/7 
f 9/5/7 23/20/7 24/21/7 21/18/7 
f 9/5/7 25/22/7 26/23/7 23/20/7 
f 9/5/7 12/8/7 27/24/7 25/22/7 
s 8
f 12/8/8 11/7/9 28/25/9 29/26/8 
f 11/7/9 10/6/10 30/27/10 28/25/9 
f 10/6/10 14/10/11 31/28/11 30/27/10 
f 14/10/11 13/9/12 32/29/12 31/28/11 
f 13/13/12 16/12/13 33/30/13 32/31/12 
f 16/12/13 15/11/14 34/32/14 33/30/13 
f 15/11/14 18/15/15 35/33/15 34/32/14 
f 18/15/15 17/14/16 36/34/16 35/33/15 
f 17/14/16 20/17/17 37/35/17 36/34/16 
f 20/17/17 19/16/18 38/36/18 37/35/17 
f 19/16/18 22/19/19 39/37/19 38/36/18 
f 22/19/19 21/18/20 40/38/20 39/37/19 
f 21/18/20 24/21/21 41/39/21 40/38/20 
f 24/21/21 23/20/22 42/40/22 41/39/21 
f 23/20/22 26/23/23 43/41/23 42/40/22 
f 26/23/23 25/22/24 44/42/24 43/41/23 
f 25/22/24 27/24/25 45/43/25 44/42/24 
f 27/24/25 12/8/8 29/26/8 45/43/25 
f 29/26/8 28/25/9 46/44/9 47/45/8 
f 28/25/9 30/27/10 48/46/10 46/44/9 
f 30/27/10 31/28/11 49/47/11 48/46/10 
f 31/28/11 32/29/12 50/48/12 49/47/11 
f 32/31/12 33/30/13 51/49/13 50/50/12 
f 33/30/13 34/32/14 52/51/14 51/49/13 
f 34/32/14 35/33/15 53/52/15 52/51/14 
f 35/33/15 36/34/16 54/53/16 53/52/15 
f 36/34/16 37/35/17 55/54/17 54/53/16 
f 37/35/17 38/36/18 56/55/18 55/54/17 
f 38/36/18 39/37/19 57/56/19 56/55/18 
f 39/37/19 40/38/20 58/57/20 57/56/19 
f 40/38/20 41/39/21 59/58/21 58/57/20 
f 41/39/21 42/40/22 60/59/22 59/58/21 
f 42/40/22 43/41/23 61/60/23 60/59/22 
f 43/41/23 44/42/24 62/61/24 61/60/23 
f 44/42/24 45/43/25 63/62/25 62/61/24 
f 45/43/25 29/26/8 47/45/8 63/62/25 
f 47/45/8 46/44/9 64/63/9 65/64/8 
f 46/44/9 48/46/10 66/65/10 64/63/9 
f 48/46/10 49/47/11 67/66/11 66/65/10 
f 49/47/11 50/48/12 68/67/12 67/66/11 
f 50/50/12 51/49/13 69/68/13 68/69/12 
f 51/49/13 52/51/14 70/70/14 69/68/13 
f 52/51/14 53/52/15 71/71/15 70/70/14 
f 53/52/15 54/53/16 72/72/16 71/71/15 
f 54/53/16 55/54/17 73/73/17 72/72/16 
f 55/54/17 56/55/18 74/74/18 73/73/17 
f 56/55/18 57/56/19 75/75/19 74/74/18 
f 57/56/19 58/57/20 76/76/20 75/75/19 
f 58/57/20 59/58/21 77/77/21 76/76/20 
f 59/58/21 60/59/22 78/78/22 77/77/21 
f 60/59/22 61/60/23 79/79/23 78/78/22 
f 61/60/23 62/61/24 80/80/24 79/79/23 
f 62/61/24 63/62/25 81/81/25 80/80/24 
f 63/62/25 47/45/8 65/64/8 81/81/25 
f 65/64/8 64/63/9 82/82/9 83/83/8 
f 64/63/9 66/65/10 84/84/10 82/82/9 
f 66/65/10 67/66/11 85/85/11 84/84/10 
f 67/66/11 68/67/12 86/86/12 85/85/11 
f 68/69/12 69/68/13 87/87/13 86/88/12 
f 69/68/13 70/70/14 88/89/14 87/87/13 
f 70/70/14 71/71/15 89/90/15 88/89/14 
f 71/71/15 72/72/16 90/91/16 89/90/15 
f 72/72/16 73/73/17 91/92/17 90/91/16 
f 73/73/17 74/74/18 92/93/18 91/92/17 
f 74/74/18 75/75/19 93/94/19 92/93/18 
f 75/75/19 76/76/20 94/95/20 93/94/19 
f 76/76/20 77/77/21 95/96/21 94/95/20 
f 77/77/21 78/78/22 96/97/22 95/96/21 
f 78/78/22 79/79/23 97/98/23 96/97/22 
f 79/79/23 80/80/24 98/99/24 97/98/23 
f 80/80/24 81/81/25 99/100/25 98/99/24 
f 81/81/25 65/64/8 83/83/8 99/100/25 
f 83/83/8 82/82/9 100/101/9 101/102/8 
f 82/82/9 84/84/10 102/103/10 100/101/9 
f 84/84/10 85/85/11 103/104/11 102/103/10 
f 85/85/11 86/86/12 104/105/12 103/104/11 
f 86/88/12 87/87/13 105/106/13 104/107/12 
f 87/87/13 88/89/14 106/108/14 105/106/13 
f 88/89/14 89/90/15 107/109/15 106/108/14 
f 89/90/15 90/91/16 108/110/16 107/109/15 
f 90/91/16 91/92/17 109/111/17 108/110/16 
f 91/92/17 92/93/18 110/112/18 109/111/17 
f 92/93/18 93/94/19 111/113/19 110/112/18 
f 93/94/19 94/95/20 112/114/20 111/113/19 
f 94/95/20 95/96/21 113/115/21 112/114/20 
f 95/96/21 96/97/22 114/116/22 113/115/21 
f 96/97/22 97/98/23 115/117/23 114/116/22 
f 97/98/23 98/99/24 116/118/24 115/117/23 
f 98/99/24 99/100/25 117/119/25 116/118/24 
f 99/100/25 83/83/8 101/102/8 117/119/25 
s 1
f 118/120/26 117/119/26 101/102/26 100/101/26 
f 118/120/26 100/101/26 102/103/26 103/104/26 
f 118/120/26 103/104/26 104/105/26 105/121/26 
f 118/120/26 105/106/26 106/108/26 107/109/26 
f 118/120/26 107/109/26 108/110/26 109/111/26 
f 118/120/26 109/111/26 110/112/26 111/113/26 
f 118/120/26 111/113/26 112/114/26 113/115/26 
f 118/120/26 113/115/26 114/116/26 115/117/26 
f 118/120/26 115/117/26 116/118/26 117/119/26 
# 108 polygons

